<?xml version="1.0" encoding="UTF-8"?>
<!-- Created with Inkscape (http://www.inkscape.org/) -->
<svg width="10mm" height="10mm" version="1.1" viewBox="0 0 10 10" xmlns="http://www.w3.org/2000/svg" xmlns:cc="http://creativecommons.org/ns#" xmlns:dc="http://purl.org/dc/elements/1.1/" xmlns:rdf="http://www.w3.org/1999/02/22-rdf-syntax-ns#">
 <metadata>
  <rdf:RDF>
   <cc:Work rdf:about="">
    <dc:format>image/svg+xml</dc:format>
    <dc:type rdf:resource="http://purl.org/dc/dcmitype/StillImage"/>
    <dc:title/>
   </cc:Work>
  </rdf:RDF>
 </metadata>
 <g transform="translate(2.4624 4.1876)">
  <g transform="matrix(0 .38185 -.50427 0 2.5588 -9.2094)">
   <path d="m10.503 7.146 0.93927-6.5749h3.4264l0.93927 6.5749 0.60854 4.2598v5.252l-1.6536 2.6855h-0.46302l1.3626-2.249v-5.6885l-1.0319-9.9086h-2.9633l-1.0319 9.9086v5.6885l1.3758 2.249h-0.46302l-1.6669-2.6855v-5.252l0.62177-4.2598" fill="#f2f2f2"/>
   <path d="m10.503 7.146-0.47625-0.33073 0.89958-6.3103q0.0265-0.19844 0.17198-0.33073 0.14552-0.13229 0.34396-0.13229h3.4264q0.19843 0 0.34395 0.13229 0.14553 0.13229 0.18521 0.33073l0.89959 6.3103-0.48948 0.33073-0.93927-6.5749h-3.4264l-0.93927 6.5749m6.2442 10.001-1.5346 2.4738-0.1852 0.18521-0.26459 0.0661h-0.46302v-0.52917h0.46302l1.6536-2.6855 0.33073 0.48948m-4.6302 2.7252h-0.56885l-0.25136-0.0661-0.19844-0.18521-1.5346-2.4738 0.3175-0.48948 1.6669 2.6855h0.56885v0.52917" fill="#cbcbcb"/>
   <path d="m12.011 19.343-1.3758-2.249v-5.6885l1.0319-9.9086h2.9633l1.0319 9.9086v5.6885l-1.3626 2.249h-2.2886m3.0956-10.081-0.0397-0.37042h-3.8232l-0.0397 0.37042-0.26458 2.1431h4.4185l-0.25135-2.1431m9.2075 0.97896 0.79375-1.4287h0.60854l-0.80698 7.1834-0.59531-1.3097v-4.445m-22.331 0v4.445l-0.59531 1.3097-0.80698-7.1834h0.59531l0.80698 1.4287" fill="#ac3939"/>
   <path d="m1.983 10.242 0.38364-0.39687 1.2568 0.59531 6.4029-3.6248 0.47625 0.33073-1.098 0.635-5.7547 3.2544-1.6669-0.79375m14.314-3.4264 6.3765 3.6248q0.635-0.29104 1.2568-0.59531l0.38364 0.39687-1.6669 0.79375-5.7415-3.2544-1.098-0.635 0.48948-0.33073m7.7655 8.5857-1.1774 0.56885-0.13229 0.0529-0.66146 0.11906v-0.5424l0.55563-0.10583 1.6669-0.80698-0.25135 0.71438m-6.641 1.614-0.67469 0.13229-0.33073-0.48948 1.0054-0.18521v0.5424m-7.8581 0.13229-0.67469-0.13229v-0.5424l0.99219 0.18521-0.3175 0.48948m-5.371-1.0054-0.635-0.11906-0.13229-0.0529-1.1774-0.56886-0.26458-0.71437 1.6669 0.80698 0.5424 0.10583v0.5424" fill="#8ea8ad"/>
   <path d="m16.416 16.658v-5.252l-0.60854-4.2598 1.098 0.635 0.51594 3.6248v5.0668l-1.0054 0.18521m-7.0115-8.8768 1.098-0.635-0.62177 4.2598v5.252l-0.99219-0.18521v-5.0668l0.51594-3.6248" fill="#bdd6db"/>
   <path d="m9.4046 7.781-0.51594 3.6248v3.3867l-4.6964-0.8599v1.6669l-0.5424-0.10583v-4.4582l5.7547-3.2544m7.5009 0 5.7415 3.2544v4.4582l-0.55563 0.10583v-1.6669l-4.6699 0.8599v-3.3867l-0.51594-3.6248" fill="#d3e1e7"/>
   <path d="m22.647 11.035 1.6669-0.79375v4.445l-1.6669 0.80698v-4.4582m-18.997 0v4.4582l-1.6669-0.80698v-4.445l1.6669 0.79375m0.5424 3.1485v-0.25135l4.6964 0.8599v0.26458l-1.1774-0.2249-1.1642-0.21166-1.1774-0.2249-1.1774-0.21167m13.229 0.87313v-0.26458l4.6699-0.8599v0.25135l-1.1642 0.21167-1.1642 0.2249-1.1774 0.21166-1.1642 0.2249" fill="#b9ced7"/>
   <path d="m11.204 9.2626 0.0397-0.37042h3.8232l0.0397 0.37042h-3.9026" fill="#c44d4d"/>
   <path d="m11.204 9.2626h3.9026l0.25136 2.1431h-4.4186l0.26459-2.1431" fill="#4a3c55"/>
   <path d="m23.93 9.8447 0.71437-1.2832q0.0662-0.13229 0.19844-0.19844l0.26458-0.07938h0.60854q0.14552 0 0.27782 0.07938l0.19843 0.2249 0.0529 0.29104-0.80698 7.1834q-0.0265 0.17197-0.14552 0.30427-0.11906 0.11906-0.29104 0.15875l-0.34396-0.0661q-0.15875-0.0794-0.22489-0.23813l-0.37042-0.82021 0.25136-0.71437 0.59531 1.3097 0.80698-7.1834h-0.60855l-0.79375 1.4288-0.38364-0.39687m-9.6308 10.028h-2.1828v-0.52917h2.1828v0.52917m-12.052-4.4715-0.37041 0.82021-0.23813 0.23812-0.33073 0.0661-0.30427-0.15875q-0.11906-0.1323-0.13229-0.30427l-0.80698-7.1834q-0.0265-0.15875 0.0397-0.29104l0.19843-0.2249q0.1323-0.07938 0.27782-0.07938h0.59531q0.14552 0 0.26458 0.07938l0.19844 0.19844 0.7276 1.2832-0.38364 0.39687-0.80698-1.4287h-0.59531l0.80698 7.1834 0.59531-1.3097 0.26458 0.71438" fill="#802b2b"/>
   <path d="m4.1923 15.599v-1.4155l1.1774 0.21167v1.4288l-1.1774-0.2249m16.735-1.2038 1.1642-0.21167v1.4155l-1.1642 0.2249v-1.4288m-2.3416 0.43656 1.1774-0.21166v1.4155l-1.1774 0.21166v-1.4155m-12.039-0.21166 1.1642 0.21166v1.4155l-1.1642-0.21166v-1.4155" fill="#ecbd02"/>
   <path d="m6.5471 14.62v1.4155l-1.1774-0.21167v-1.4288l1.1774 0.2249m2.3416 0.43656v1.4155l-1.1774-0.2249v-1.4155l1.1774 0.2249m10.874-0.43656 1.1642-0.2249v1.4288l-1.1642 0.21167v-1.4155m-2.3416 0.43656 1.1642-0.2249v1.4155l-1.1642 0.2249v-1.4155" fill="#fc0"/>
   <path d="m22.091 16.142-4.6699 0.87313v-0.5424l1.1642-0.2249 1.1774-0.21166 1.1642-0.21167 1.1642-0.2249v0.5424m-13.203 0.87313-4.6964-0.87313v-0.5424l1.1774 0.2249 1.1774 0.21167 1.1642 0.21166 1.1774 0.2249v0.5424" fill="#bf9900"/>
  </g>
 </g>
</svg>
